<svg xmlns="http://www.w3.org/2000/svg" width="47.855" height="47.856" viewBox="0 0 47.855 47.856">
  <g id="Group_113" data-name="Group 113" transform="translate(-660.414 -292.414)">
    <path id="Path_25404" data-name="Path 25404" d="M176.14,152.682A23.957,23.957,0,0,1,152.3,176.61h-.084a23.928,23.928,0,0,1,0-47.856h.084A23.957,23.957,0,0,1,176.14,152.682Zm0,0" transform="translate(532.129 163.66)" fill="#3eb2ff" opacity="0.6"/>
    <path id="Path_1256" data-name="Path 1256" d="M164.691,146.957a18.226,18.226,0,0,1-18.139,18.2h-.064a18.2,18.2,0,0,1,0-36.407h.064A18.225,18.225,0,0,1,164.691,146.957Zm0,0" transform="translate(537.825 169.357)" fill="#3eb2ff"/>
    <path id="Path_1258" data-name="Path 1258" d="M207.728,215.668l-7.622,7.624-1.647,1.648a2,2,0,0,1-2.819,0L192.1,221.4a1.992,1.992,0,1,1,2.817-2.818l2.133,2.133,7.862-7.861a1.992,1.992,0,0,1,2.817,2.817Zm0,0" transform="translate(484.349 98.286)" fill="#fff"/>
  </g>
</svg>
